<svg xmlns="http://www.w3.org/2000/svg" width="102" height="36" viewBox="0 0 102 36">
    <path fill="#003C86" fill-rule="evenodd" d="M90.7173394,12.241965 L100.847169,12.241965 C101.690944,12.241965 101.872169,12.0278831 101.872169,11.2798644 C101.872169,8.58177211 98.9776174,7.03335577 95.5798341,7.03335577 C91.2684049,7.03335577 88.1935349,10.3724257 88.1935349,14.0582375 C88.1935349,17.4233067 90.9067317,20.285258 94.8563582,20.3608462 C97.3604587,20.40904 100.001969,19.6936156 101.44944,18.332521 L100.936745,17.8507097 C100.092841,18.332521 99.0675819,18.7325296 98.0126371,18.7589094 C92.4882416,18.8963885 90.5975595,16.0338032 90.6871352,13.0693766 L90.7173394,12.241965 L90.7173394,12.241965 Z M95.0676583,7.8619088 C97.7619289,7.8619088 99.2275478,9.68363476 99.0973973,11.1728234 L90.8074337,11.3862713 C91.1092168,9.62402663 92.8057103,7.8619088 95.0676583,7.8619088 Z M39.5914032,15.7956243 L39.5914032,16.271982 C39.5914032,18.2641619 39.390344,19.4199255 41.3221194,19.9969829 L41.3221194,20.3636364 C38.5851999,20.3636364 37.3081955,19.0235948 37.3081955,16.8993893 L37.3081955,15.8216236 L37.2938064,6.28660539 L34.7147786,6.28660539 L34.7147786,5.88101644 C36.6414983,5.08201383 38.5338657,3.11481867 39.1523397,1.13037519 L39.6264038,1.12175103 L39.6264038,5.54594265 L43.1855788,5.54594265 L43.1867455,6.28660539 L39.6264038,6.28660539 L39.5914032,15.7956243 Z M78.3679511,8.90035854 C79.9515351,10.1696313 80.7441049,11.7678901 80.7441049,13.6955157 C80.7441049,15.5989174 79.9488128,17.1871571 78.3582287,18.4568103 C76.7663483,19.7279854 74.7785718,20.3636364 72.3947698,20.3636364 C70.0118752,20.3636364 68.0240987,19.7279854 66.4328665,18.4568103 C64.8416342,17.1871571 64.0469903,15.5989174 64.0469903,13.6955157 C64.0469903,11.7678901 64.8387823,10.1696313 66.4224959,8.90035854 C68.0062095,7.62778835 69.997486,6.99340564 72.3947698,6.99340564 C74.7923128,6.99340564 76.7834597,7.62778835 78.3679511,8.90035854 Z M76.4299533,17.8668166 C75.4542136,18.9192172 74.1091524,19.4430078 72.3947698,19.4430078 C70.6812946,19.4430078 69.3355852,18.9225147 68.3582899,17.8845722 C67.3824206,16.8425714 66.895134,15.4495166 66.895134,13.704013 C66.895134,11.9227445 67.3873466,10.5158657 68.3712531,9.47361121 C69.3546411,8.43325908 70.6955541,7.91289277 72.3947698,7.91289277 C74.0926892,7.91289277 75.4350281,8.44543436 76.4195828,9.50772736 C77.403619,10.5697667 77.8954426,11.9699237 77.8954426,13.704013 C77.8954426,15.425927 77.4064709,16.8155575 76.4299533,17.8668166 Z M51.6194339,5.47035447 C55.4194651,5.47035447 62.795653,6.45439594 62.795653,11.3781544 C62.795653,16.6055339 56.1395706,20.3636364 51.331262,20.3636364 C50.817401,20.3636364 50.0576281,20.0222213 50.0576281,19.4393298 L50.0576281,6.6360105 C50.0576281,5.7913506 50.8788465,5.47035447 51.6194339,5.47035447 Z M54.9346415,18.3813489 C54.4815779,18.4741854 53.7691206,18.6053233 53.2962232,18.6053233 C53.1738507,18.6053233 52.6588229,18.7332906 52.6588229,18.102459 L52.6588229,7.57426786 C52.6588229,7.19188803 53.3167051,7.00228345 53.6254884,6.99163008 C57.5481514,6.85250216 59.9476389,8.7252121 59.9476389,11.7803191 C59.9476389,14.5950911 57.8813056,17.7765166 54.9346415,18.3813489 Z M46.9590354,17.4268579 C46.9590354,19.419545 46.8325146,19.5808675 48.2224285,19.996222 L48.2224285,20.3636364 C46.9805543,20.2586246 44.7096617,20.2323716 43.4959177,20.3636364 L43.4959177,19.996222 C44.6559941,19.6951375 44.6764759,19.1055243 44.6764759,16.3783889 L44.6597534,10.4733791 C44.6597534,9.96899283 44.1335773,9.89239004 43.6381239,9.66625962 C43.4829545,9.61476834 43.359156,9.58991048 43.359156,9.51444913 C43.359156,9.43873412 43.4517132,9.41273482 43.5759006,9.38800379 L46.951776,8.65596521 L46.9408869,15.6209851 C46.9408869,17.618238 46.9590354,15.7504743 46.9590354,17.4268579 Z M45.810237,7.24388662 C45.0430751,7.24388662 44.4204528,6.63512272 44.4204528,5.88456757 C44.4204528,5.13312463 45.0430751,4.52359978 45.810237,4.52359978 C46.5779175,4.52359978 47.2000212,5.13312463 47.2000212,5.88456757 C47.2000212,6.63512272 46.5779175,7.24388662 45.810237,7.24388662 Z M87.0360511,6.39783163 C86.2837969,6.39783163 85.3538172,6.78794782 85.3538172,7.69703524 C85.3538172,10.3393242 85.8048068,13.0380507 85.8048068,15.7226994 C85.8048068,16.7622906 85.9239386,20.3636364 84.1811666,20.3636364 C83.3182066,20.3636364 82.8095308,19.3239184 82.8095308,18.588075 C82.8095308,14.9727784 82.8984583,11.3125855 82.8984583,7.69703524 C82.5879898,6.78794782 82.4107829,6.39783163 81.3489676,6.39783163 C80.3526163,6.39783163 79.3788211,6.48483413 78.3832477,6.48483413 C77.7186246,6.48483413 76.7003656,6.29015651 76.7003656,5.44524296 C76.7003656,4.75213989 77.6749386,4.42771947 78.2498564,4.42771947 C79.556028,4.42771947 80.8839777,4.53602871 82.1892419,4.53602871 C84.8006777,4.53602871 87.3902056,4.42771947 89.9798632,4.42771947 C90.5549106,4.42771947 91.5067981,4.77420759 91.5067981,5.44524296 C91.5067981,6.9175638 87.9879386,6.39783163 87.0360511,6.39783163 Z M34.1791393,13.3882167 C34.1777134,15.1089893 34.1777134,15.3238323 35.3256044,15.65675 L35.377846,15.6714618 L35.377846,16.0795873 L35.2992891,16.0731192 C34.6784816,16.0197255 33.7886879,15.9883995 32.9197649,15.9883995 C32.074046,15.9883995 31.3320327,16.0180768 30.8310052,16.0727387 L30.7510222,16.0814897 L30.7510222,15.6723496 L30.8020972,15.65675 C31.8548384,15.3361344 31.8863389,14.9082241 31.874672,13.0873859 L31.8738942,12.9619552 C31.8725979,12.7287225 31.8705238,12.4729148 31.8705238,12.1928834 L31.8705238,9.92980366 C31.8705238,7.6938646 29.9986384,6.90094962 28.3953503,6.90094962 C26.363499,6.90094962 24.7717482,8.24543005 24.7717482,9.96252472 L24.781341,13.3893582 C24.7799151,15.1089893 24.7795262,15.3238323 25.9275468,15.65675 L25.9797884,15.6714618 L25.9797884,16.0822506 L25.8994166,16.0727387 L25.8986388,16.0714704 L25.8633789,16.0731192 C25.5707996,16.0731192 25.2869056,16.0549831 25.019086,16.0194718 C24.5472257,15.9993065 24.0349202,15.9883995 23.5441336,15.9883995 C22.7240819,15.9883995 22.0226433,16.0174426 21.5152639,16.0727387 L21.4352809,16.0814897 L21.4352809,15.6723496 L21.4863559,15.65675 C22.491911,15.350212 22.489448,14.9415793 22.4785589,13.3367254 L22.4772626,13.1384967 C22.4688365,12.9969591 22.4623549,10.2239127 22.4623549,10.1057111 C22.4623549,9.76087168 22.4663735,9.44964114 22.469744,9.16796101 C22.4955407,7.1322799 22.5008556,6.63233255 20.8827895,6.39149034 L20.8210847,6.3824857 L20.8210847,5.95102429 L20.8936786,5.95102429 C22.0271805,5.95102429 22.6463027,5.91462528 23.4299279,5.86884117 C23.7908232,5.84728078 24.1903489,5.823818 24.6960432,5.80035523 L24.7717482,5.79667728 L24.7717482,7.42182323 C25.861953,6.25084051 27.8031915,5.49965123 29.7559673,5.49965123 C32.5561472,5.49965123 34.1621575,7.10881713 34.1621575,9.91458456 C34.1621575,10.9138451 34.1664354,11.3280582 34.1713614,11.7256572 C34.1747318,12.0694819 34.1791393,12.4004973 34.1795282,13.0866249 L34.1791393,13.3882167 Z M19.1966667,14.1632493 C19.8879939,15.3821721 20.6901565,16.5737006 21.2994266,17.846144 C21.4381328,18.143931 21.6320622,18.6093817 21.6320622,18.9344363 C21.6320622,19.6383195 21.4052063,20.3636364 20.5861916,20.3636364 C18.067702,20.3636364 17.3880416,13.8662232 13.8739785,13.8662232 C12.0188156,13.8662232 10.1370781,13.9738983 8.28321151,13.9738983 C6.65101554,13.9738983 5.79285199,14.3258399 4.96268894,15.760874 C4.2980659,16.9248813 3.08095146,20.2229865 1.50410834,20.2229865 C0.756002314,20.2229865 0.184973545,19.5240495 0.184973545,18.8209272 C0.184973545,18.2790005 0.489219747,17.7912284 0.738242736,17.3048514 C1.90065249,15.1654268 2.9797089,12.9991151 4.14289645,10.8604515 C5.80244476,7.82817313 7.26910071,4.63368459 9.04026214,1.68244795 C9.31650784,1.22283121 9.98177904,0.545454545 10.5617524,0.545454545 C11.7241622,0.545454545 12.6658087,2.65748479 13.1634658,3.49694484 C15.2108729,7.01610746 17.1760934,10.61758 19.1966667,14.1632493 Z M12.9987036,11.5995923 C12.4810832,11.6678246 9.4737514,11.7000383 8.75364588,11.7000383 C8.25521101,11.7000383 7.53588328,11.3749838 7.53588328,10.7794098 C7.53588328,10.2923987 9.72264476,5.5270456 10.6082903,5.5270456 C11.3829709,5.5270456 13.6620303,10.0168062 13.8295148,10.6457354 C13.9533133,11.1106788 13.6292334,11.51538 12.9987036,11.5995923 L12.9987036,11.5995923 Z" transform="translate(0 7.5)"/>
</svg>